<svg width="39" height="40" viewBox="0 0 39 40" fill="none" xmlns="http://www.w3.org/2000/svg">
<circle cx="19.6279" cy="19.9497" r="19.1263" fill="white"/>
<path fill-rule="evenodd" clip-rule="evenodd" d="M16.3228 9.8064C17.3426 9.75946 17.6678 9.74902 20.2655 9.74902C22.8632 9.74902 23.1883 9.76033 24.2072 9.8064C25.2261 9.85248 25.9216 10.0151 26.5302 10.2507C27.1674 10.4915 27.7456 10.8679 28.2237 11.3548C28.7106 11.832 29.0861 12.4093 29.3261 13.0474C29.5626 13.656 29.7243 14.3515 29.7712 15.3687C29.8182 16.3902 29.8286 16.7153 29.8286 19.3122C29.8286 21.9098 29.8173 22.235 29.7712 23.2548C29.7251 24.2719 29.5626 24.9674 29.3261 25.576C29.0861 26.2142 28.7099 26.7924 28.2237 27.2704C27.7456 27.7573 27.1674 28.1328 26.5302 28.3728C25.9216 28.6093 25.2261 28.771 24.2089 28.8179C23.1883 28.8648 22.8632 28.8753 20.2655 28.8753C17.6678 28.8753 17.3426 28.864 16.3228 28.8179C15.3057 28.7718 14.6102 28.6093 14.0016 28.3728C13.3634 28.1328 12.7852 27.7566 12.3072 27.2704C11.8207 26.7928 11.4442 26.2149 11.204 25.5769C10.9684 24.9683 10.8067 24.2728 10.7597 23.2556C10.7128 22.2341 10.7023 21.909 10.7023 19.3122C10.7023 16.7145 10.7136 16.3893 10.7597 15.3704C10.8058 14.3515 10.9684 13.656 11.204 13.0474C11.4445 12.4094 11.8213 11.8314 12.3081 11.3539C12.7854 10.8675 13.363 10.491 14.0007 10.2507C14.6093 10.0151 15.3048 9.85335 16.322 9.8064H16.3228ZM24.1298 11.5278C23.1214 11.4817 22.8188 11.4721 20.2655 11.4721C17.7121 11.4721 17.4096 11.4817 16.4011 11.5278C15.4682 11.5704 14.9623 11.726 14.625 11.8573C14.179 12.0311 13.8599 12.2372 13.5252 12.5719C13.2079 12.8806 12.9637 13.2563 12.8106 13.6716C12.6793 14.009 12.5237 14.5149 12.4811 15.4478C12.435 16.4563 12.4254 16.7588 12.4254 19.3122C12.4254 21.8655 12.435 22.168 12.4811 23.1765C12.5237 24.1094 12.6793 24.6153 12.8106 24.9527C12.9636 25.3674 13.2079 25.7438 13.5252 26.0524C13.8338 26.3697 14.2103 26.614 14.625 26.767C14.9623 26.8983 15.4682 27.0539 16.4011 27.0965C17.4096 27.1426 17.7112 27.1522 20.2655 27.1522C22.8197 27.1522 23.1214 27.1426 24.1298 27.0965C25.0627 27.0539 25.5686 26.8983 25.906 26.767C26.352 26.5932 26.671 26.3871 27.0057 26.0524C27.323 25.7438 27.5673 25.3674 27.7204 24.9527C27.8516 24.6153 28.0072 24.1094 28.0498 23.1765C28.0959 22.168 28.1055 21.8655 28.1055 19.3122C28.1055 16.7588 28.0959 16.4563 28.0498 15.4478C28.0072 14.5149 27.8516 14.009 27.7204 13.6716C27.5465 13.2257 27.3404 12.9066 27.0057 12.5719C26.697 12.2546 26.3213 12.0105 25.906 11.8573C25.5686 11.726 25.0627 11.5704 24.1298 11.5278V11.5278ZM19.044 22.2602C19.7261 22.5442 20.4857 22.5825 21.193 22.3686C21.9003 22.1548 22.5114 21.702 22.9219 21.0876C23.3325 20.4733 23.517 19.7354 23.4439 19.0001C23.3709 18.2648 23.0449 17.5777 22.5215 17.0561C22.1879 16.7227 21.7844 16.4674 21.3403 16.3086C20.8962 16.1498 20.4223 16.0914 19.9529 16.1377C19.4835 16.184 19.0302 16.3338 18.6256 16.5763C18.2211 16.8189 17.8753 17.1481 17.6133 17.5402C17.3512 17.9324 17.1793 18.3778 17.1101 18.8444C17.0408 19.311 17.0759 19.7871 17.2127 20.2385C17.3495 20.6899 17.5847 21.1053 17.9014 21.4549C18.218 21.8045 18.6083 22.0795 19.044 22.2602ZM16.7897 15.8364C17.2461 15.3799 17.788 15.0179 18.3844 14.7708C18.9808 14.5238 19.62 14.3967 20.2655 14.3967C20.911 14.3967 21.5502 14.5238 22.1465 14.7708C22.7429 15.0179 23.2848 15.3799 23.7412 15.8364C24.1977 16.2928 24.5597 16.8347 24.8068 17.4311C25.0538 18.0275 25.1809 18.6666 25.1809 19.3122C25.1809 19.9577 25.0538 20.5968 24.8068 21.1932C24.5597 21.7896 24.1977 22.3315 23.7412 22.7879C22.8194 23.7097 21.5691 24.2276 20.2655 24.2276C18.9618 24.2276 17.7115 23.7097 16.7897 22.7879C15.8679 21.8661 15.35 20.6158 15.35 19.3122C15.35 18.0085 15.8679 16.7582 16.7897 15.8364V15.8364ZM26.2711 15.1287C26.3842 15.022 26.4748 14.8937 26.5374 14.7514C26.6 14.6091 26.6335 14.4556 26.6357 14.3001C26.638 14.1447 26.609 13.9903 26.5506 13.8462C26.4921 13.7021 26.4054 13.5712 26.2954 13.4613C26.1855 13.3513 26.0546 13.2646 25.9105 13.2061C25.7664 13.1477 25.612 13.1187 25.4566 13.121C25.3011 13.1232 25.1476 13.1567 25.0053 13.2193C24.863 13.2819 24.7347 13.3725 24.628 13.4856C24.4205 13.7056 24.3069 13.9978 24.3113 14.3001C24.3157 14.6025 24.4378 14.8913 24.6516 15.1051C24.8654 15.3189 25.1542 15.441 25.4566 15.4454C25.7589 15.4498 26.0511 15.3362 26.2711 15.1287V15.1287Z" fill="#0FA6E4"/>
</svg>
