<svg width="40" height="40" viewBox="0 0 40 40" fill="none" xmlns="http://www.w3.org/2000/svg">
<circle cx="19.8963" cy="20.1155" r="19.1263" fill="#1B1B1B"/>
<path d="M15.9038 26.9889H13.0013V17.6421H15.9038V26.9889ZM14.451 16.3671C13.5228 16.3671 12.77 15.5983 12.77 14.6702C12.77 14.2244 12.9471 13.7968 13.2624 13.4816C13.5776 13.1664 14.0051 12.9893 14.451 12.9893C14.8968 12.9893 15.3243 13.1664 15.6396 13.4816C15.9548 13.7968 16.1319 14.2244 16.1319 14.6702C16.1319 15.5983 15.3788 16.3671 14.451 16.3671ZM26.7669 26.9889H23.8706V22.4389C23.8706 21.3546 23.8488 19.9639 22.3616 19.9639C20.8525 19.9639 20.6213 21.1421 20.6213 22.3608V26.9889H17.7219V17.6421H20.5056V18.9171H20.5463C20.9338 18.1827 21.8803 17.4077 23.2925 17.4077C26.23 17.4077 26.77 19.3421 26.77 21.8546V26.9889H26.7669Z" fill="white"/>
</svg>
