<svg width="40" height="40" viewBox="0 0 40 40" fill="none" xmlns="http://www.w3.org/2000/svg">
<circle cx="19.8963" cy="20.1155" r="19.1263" fill="#1B1B1B"/>
<path d="M16.1286 14.9893C13.1692 14.9893 10.77 17.405 10.77 20.3846C10.77 23.3642 13.1693 25.78 16.1286 25.78C19.0879 25.78 21.4872 23.3644 21.4872 20.3846C21.4872 17.4048 19.0882 14.9893 16.1286 14.9893ZM24.686 15.3053C23.2063 15.3053 22.0069 17.5799 22.0069 20.3847C22.0069 23.1894 23.2064 25.4642 24.6862 25.4642C26.166 25.4642 27.3655 23.1896 27.3655 20.3847H27.3653C27.3653 17.5791 26.166 15.3053 24.6861 15.3053H24.686ZM28.8276 15.8344C28.3073 15.8344 27.8855 17.8718 27.8855 20.3847C27.8855 22.8976 28.307 24.935 28.8276 24.935C29.3482 24.935 29.77 22.8971 29.77 20.3846C29.77 17.8716 29.348 15.8344 28.8277 15.8344H28.8276Z" fill="white"/>
</svg>
