<svg width="39" height="40" viewBox="0 0 39 40" fill="none" xmlns="http://www.w3.org/2000/svg">
<circle cx="19.3754" cy="19.9497" r="19.1263" fill="#1B1B1B"/>
<path d="M29.576 14.1169C28.8727 14.4157 28.1072 14.6307 27.3188 14.7144C28.1374 14.2356 28.7504 13.479 29.0428 12.5868C28.2747 13.0367 27.4332 13.3523 26.5557 13.5193C26.189 13.1332 25.7454 12.8257 25.2527 12.6158C24.7599 12.4059 24.2286 12.2982 23.6917 12.2993C21.5196 12.2993 19.7727 14.0331 19.7727 16.1608C19.7727 16.4596 19.8095 16.7583 19.8692 17.0458C16.6168 16.8783 13.716 15.3482 11.7875 13.0055C11.4361 13.5966 11.252 14.2695 11.2543 14.9544C11.2543 16.2943 11.9461 17.4759 13.0012 18.1707C12.3794 18.1466 11.7722 17.9783 11.229 17.6796V17.7271C11.229 19.6035 12.5759 21.1585 14.3711 21.5161C14.034 21.6024 13.6873 21.6465 13.339 21.6474C13.0839 21.6474 12.8426 21.6225 12.5989 21.5886C13.0954 23.1187 14.5412 24.23 16.2628 24.2662C14.9159 25.3052 13.2287 25.9163 11.3968 25.9163C11.0681 25.9163 10.7647 25.905 10.4498 25.8688C12.1875 26.9666 14.2493 27.6003 16.4697 27.6003C23.6779 27.6003 27.6223 21.7198 27.6223 16.6157C27.6223 16.4482 27.6223 16.2808 27.6108 16.1133C28.3739 15.5632 29.0428 14.8819 29.576 14.1169Z" fill="white"/>
</svg>
