<svg width="104" height="104" viewBox="0 0 104 104" fill="none" xmlns="http://www.w3.org/2000/svg">
<path d="M78.6063 76.04C92.1325 61.0966 90.9835 38.0174 76.0401 24.4912C61.0966 10.965 38.0174 12.114 24.4913 27.0575C10.9651 42.0009 12.1141 65.0801 27.0575 78.6063C42.001 92.1324 65.0802 90.9835 78.6063 76.04Z" fill="#CDEEFF"/>
<path d="M51.0239 94.9478C44.0302 94.9312 37.1427 93.2364 30.94 90.0058C24.7372 86.7752 19.4003 82.1032 15.3776 76.3822C11.355 70.6613 8.76401 64.0585 7.82242 57.1285C6.88083 50.1985 7.6161 43.1438 9.96648 36.5569C12.3169 29.9701 16.2137 24.0434 21.3296 19.275C26.4455 14.5065 32.6311 11.0354 39.3668 9.15331C46.1024 7.27122 53.1914 7.0331 60.0381 8.45895C66.8849 9.88479 73.2895 12.933 78.7139 17.3474C85.6883 23.0634 90.7259 30.7951 93.1374 39.4842C95.5488 48.1734 95.2162 57.3954 92.185 65.8882C89.1538 74.381 83.5723 81.7297 76.2041 86.9284C68.836 92.1271 60.0414 94.9219 51.0239 94.9303V94.9478ZM51.1468 8.43638C41.0594 8.43399 31.2955 11.9954 23.5786 18.4919C15.8617 24.9885 10.688 34.0024 8.97078 43.9426C7.2536 53.8827 9.10332 64.11 14.1934 72.8189C19.2836 81.5279 27.2868 88.1586 36.7903 91.5406C46.2939 94.9226 56.6867 94.8384 66.1342 91.3029C75.5818 87.7674 83.4765 81.0079 88.4248 72.2176C93.3732 63.4273 95.057 53.1714 93.179 43.2604C91.301 33.3493 85.9819 24.4204 78.1608 18.0497C70.5318 11.8301 60.9898 8.4344 51.1468 8.43638Z" fill="#0FA6E4"/>
<path d="M51.2863 51.5578C52.3498 51.5578 53.2119 50.6956 53.2119 49.6322C53.2119 48.5687 52.3498 47.7065 51.2863 47.7065C50.2228 47.7065 49.3607 48.5687 49.3607 49.6322C49.3607 50.6956 50.2228 51.5578 51.2863 51.5578Z" stroke="#0FA6E4" stroke-width="0.802338" stroke-miterlimit="10" stroke-linecap="round"/>
<path d="M59.4701 44.8661L52.9351 48.6451" stroke="#0FA6E4" stroke-width="0.802338" stroke-miterlimit="10" stroke-linecap="round"/>
<path d="M49.6054 50.5667L47.415 51.8343" stroke="#0FA6E4" stroke-width="0.802338" stroke-miterlimit="10" stroke-linecap="round"/>
<path d="M51.2863 34.6644V38.7323" stroke="#0FA6E4" stroke-width="0.802338" stroke-miterlimit="10" stroke-linecap="round"/>
<path d="M43.6079 41.9336L40.6633 39.0813" stroke="#0FA6E4" stroke-width="0.802338" stroke-miterlimit="10" stroke-linecap="round"/>
<path d="M59.0248 41.9336L61.8972 39.0813" stroke="#0FA6E4" stroke-width="0.802338" stroke-miterlimit="10" stroke-linecap="round"/>
<path d="M40.3063 49.6318H36.3187" stroke="#0FA6E4" stroke-width="0.802338" stroke-miterlimit="10" stroke-linecap="round"/>
<path d="M43.5478 57.3022L40.6674 60.1786" stroke="#0FA6E4" stroke-width="0.802338" stroke-miterlimit="10" stroke-linecap="round"/>
<path d="M66.2539 49.6642L61.0146 50.5588L62.9964 52.5365L53.252 62.2809L49.5532 58.5781L44.2257 62.8305C41.891 61.5815 39.9294 59.7354 38.541 57.4807C37.1527 55.226 36.3874 52.6433 36.3231 49.9963C36.2588 47.3492 36.8979 44.7324 38.1751 42.413C39.4524 40.0935 41.3221 38.1544 43.5934 36.7935C45.8648 35.4326 48.4565 34.6986 51.1042 34.6664C53.7518 34.6342 56.3607 35.3049 58.6645 36.6102C60.9683 37.9154 62.8846 39.8084 64.2179 42.0961C65.5512 44.3838 66.2537 46.9842 66.2539 49.6321V49.6642Z" stroke="black" stroke-width="0.401169" stroke-miterlimit="10"/>
<path d="M66.2539 49.6642V49.6321C66.2525 46.9855 65.5493 44.3866 64.2159 42.1005C62.8825 39.8144 60.9666 37.9228 58.6636 36.6187C56.3606 35.3146 53.7529 34.6446 51.1065 34.6771C48.4602 34.7096 45.8697 35.4434 43.5995 36.8037C41.3292 38.1639 39.4603 40.102 38.1834 42.4202C36.9066 44.7383 36.2673 47.3537 36.331 49.9995C36.3947 52.6453 37.1589 55.2269 38.5458 57.481C39.9327 59.7351 41.8926 61.581 44.2257 62.8305L42.3683 64.3109C39.8159 62.7631 37.7111 60.5768 36.2612 57.9675C34.8114 55.3583 34.0667 52.4162 34.1005 49.4314C34.1343 46.4466 34.9455 43.5222 36.454 40.9465C37.9626 38.3707 40.1164 36.2327 42.7032 34.7431C45.2899 33.2535 48.2203 32.4639 51.2052 32.452C54.1902 32.4402 57.1267 33.2065 59.7252 34.6755C62.3237 36.1445 64.4945 38.2654 66.0234 40.8291C67.5524 43.3928 68.3868 46.3107 68.4443 49.2951L66.2539 49.6642Z" stroke="black" stroke-width="0.802338" stroke-miterlimit="10"/>
<path d="M66.2539 49.6642L61.0146 50.5588L62.9964 52.5365L53.252 62.2809L49.5532 58.5781L44.2257 62.8305C41.891 61.5815 39.9294 59.7354 38.541 57.4807C37.1527 55.226 36.3874 52.6433 36.3231 49.9963C36.2588 47.3492 36.8979 44.7324 38.1751 42.413C39.4524 40.0935 41.3221 38.1544 43.5934 36.7935C45.8648 35.4326 48.4565 34.6986 51.1042 34.6664C53.7518 34.6342 56.3607 35.3049 58.6645 36.6102C60.9683 37.9154 62.8846 39.8084 64.2179 42.0961C65.5512 44.3838 66.2537 46.9842 66.2539 49.6321V49.6642Z" stroke="black" stroke-width="0.401169" stroke-miterlimit="10"/>
<path d="M68.8896 49.2188L67.6419 57.0054L65.7966 55.1601L57.9056 63.0551L54.4395 66.5252L53.2921 67.6685L52.3935 66.7739L50.175 64.5554L49.1761 63.5445L47.8202 64.1823L44.8796 65.5624L35.1312 70.1598C35.1071 70.1598 35.0831 70.1317 35.1071 70.1116L42.3683 64.3107L44.2257 62.8304L49.5532 58.578L53.256 62.2808L62.9964 52.5364L61.0146 50.5587L66.2539 49.664L68.4563 49.295L68.8896 49.2188Z" stroke="black" stroke-width="0.802338" stroke-miterlimit="10"/>
</svg>
